<?xml version="1.0" encoding="UTF-8"?>
<svg width="94px" height="96px" viewBox="0 0 94 96" version="1.1" xmlns="http://www.w3.org/2000/svg" xmlns:xlink="http://www.w3.org/1999/xlink">
    <!-- Generator: Sketch 52.5 (67469) - http://www.bohemiancoding.com/sketch -->
    <title>Slice 1</title>
    <desc>Created with Sketch.</desc>
    <g id="Page-1" stroke="none" stroke-width="1" fill="none" fill-rule="evenodd">
        <g id="noun_brandenburg_2247162" fill="#1E1248">
            <g id="Group">
                <rect id="Rectangle" x="8.1143" y="45.1293" width="7.8" height="39.9301"></rect>
                <rect id="Rectangle" x="78.7943" y="45.1293" width="7.79" height="39.9301"></rect>
                <rect id="Rectangle" x="55.2344" y="45.1293" width="7.8" height="39.9301"></rect>
                <rect id="Rectangle" x="31.6743" y="45.1293" width="7.8" height="39.9301"></rect>
                <rect id="Rectangle" x="4.6943" y="19.5193" width="22.77" height="4.85"></rect>
                <rect id="Rectangle" x="61.5944" y="19.5193" width="27.71" height="4.85"></rect>
                <polygon id="Path" points="84.9844 33.4427 84.9844 26.3694 61.5944 26.3694 61.5944 29.1293 27.4644 29.1293 27.4644 26.3694 9.0144 26.3694 9.0144 33.4427 3.1338 33.4427 4.1543 35.2194 89.8444 35.2194 90.8649 33.4427"></polygon>
                <rect id="Rectangle" x="29.4662" y="16.7606" width="30.129" height="10.3694"></rect>
                <polygon id="Path" points="88.9844 93.0049 88.9844 87.0594 76.3943 87.0594 76.3943 93.0049 65.4343 93.0049 65.4343 87.0594 52.8344 87.0594 52.8344 93.0049 41.8743 93.0049 41.8743 87.0594 29.2744 87.0594 29.2744 93.0049 18.3143 93.0049 18.3143 87.0594 5.7144 87.0594 5.7144 93.0049 0 93.0049 0 95.0049 94 95.0049 94 93.0049"></polygon>
                <polygon id="Path" points="37.0543 11.2894 33.5443 7.6494 32.9844 7.6494 32.9844 15.7593 37.0543 15.7593"></polygon>
                <polygon id="Path" points="43.1243 11.2894 39.6143 7.6494 39.0543 7.6494 39.0543 15.7593 43.1243 15.7593"></polygon>
                <path d="M45.1243,15.7593 L49.1844,15.7593 C49.1844,15.7593 49.1844,7.9893 49.1844,7.6493 L48.6344,7.6493 L45.1244,11.2893 L45.1244,15.7593 L45.1243,15.7593 Z" id="Path"></path>
                <polygon id="Path" points="55.2544 7.6494 54.6943 7.6494 51.1843 11.2894 51.1843 15.7593 55.2544 15.7593"></polygon>
                <path d="M43.1243,5.0609 L43.1243,8.4094 L44.1243,9.4394 L45.1243,8.4094 L45.1243,5.0584 C46.9528,4.6052 48.3174,2.9618 48.3174,0.9952 L46.3174,0.9952 C46.3174,1.8434 45.8296,2.5727 45.1243,2.9391 L45.1243,0.9994 L43.1243,0.9994 L43.1243,2.9436 C42.4145,2.5787 41.9229,1.8468 41.9229,0.9952 L39.9229,0.9952 C39.9229,2.9648 41.2915,4.6107 43.1243,5.0609 Z" id="Path"></path>
                <path d="M59.8174,37.2194 C53.0152,37.2194 13.3466,37.2194 6.7144,37.2194 L6.7144,43.1294 L87.2845,43.1294 L87.2845,37.2194 C77.3772,37.2194 69.652,37.2194 59.8174,37.2194 Z" id="Path"></path>
            </g>
        </g>
    </g>
</svg>